<svg width="4" height="4" viewBox="0 0 4 4" fill="none" xmlns="http://www.w3.org/2000/svg">
<path d="M1.11111 0C0.498444 0 0 0.498444 0 1.11111V2.88889C0 3.50156 0.498444 4 1.11111 4H2.88889C3.50156 4 4 3.50156 4 2.88889V1.11111C4 0.498444 3.50156 0 2.88889 0H1.11111ZM1.11111 0.444444H2.88889C3.25644 0.444444 3.55556 0.743556 3.55556 1.11111V2.88889C3.55556 3.25644 3.25644 3.55556 2.88889 3.55556H1.11111C0.743556 3.55556 0.444444 3.25644 0.444444 2.88889V1.11111C0.444444 0.743556 0.743556 0.444444 1.11111 0.444444ZM3.11111 0.666667C3.05217 0.666667 2.99565 0.690079 2.95398 0.731754C2.9123 0.773429 2.88889 0.829952 2.88889 0.888889C2.88889 0.947826 2.9123 1.00435 2.95398 1.04602C2.99565 1.0877 3.05217 1.11111 3.11111 1.11111C3.17005 1.11111 3.22657 1.0877 3.26825 1.04602C3.30992 1.00435 3.33333 0.947826 3.33333 0.888889C3.33333 0.829952 3.30992 0.773429 3.26825 0.731754C3.22657 0.690079 3.17005 0.666667 3.11111 0.666667ZM2 0.888889C1.38733 0.888889 0.888889 1.38733 0.888889 2C0.888889 2.61267 1.38733 3.11111 2 3.11111C2.61267 3.11111 3.11111 2.61267 3.11111 2C3.11111 1.38733 2.61267 0.888889 2 0.888889ZM2 1.33333C2.36756 1.33333 2.66667 1.63244 2.66667 2C2.66667 2.36756 2.36756 2.66667 2 2.66667C1.63244 2.66667 1.33333 2.36756 1.33333 2C1.33333 1.63244 1.63244 1.33333 2 1.33333Z" fill="white"/>
</svg>
