<svg width="4" height="4" viewBox="0 0 4 4" fill="none" xmlns="http://www.w3.org/2000/svg">
<path d="M2.00254 0C0.901231 0 0.00469733 0.895675 0.00429729 1.99688C0.00409727 2.34888 0.0963031 2.69251 0.27112 2.99531L0 4L1.04659 3.75273C1.33841 3.91193 1.66693 3.9955 2.00137 3.9957H2.00215C3.10326 3.9957 3.9994 3.09983 4 1.99883C4.0004 1.46503 3.7928 0.963147 3.41557 0.585547C3.03833 0.208147 2.53699 0.0002 2.00254 0ZM2.00215 0.4C2.42939 0.4002 2.8309 0.566759 3.13273 0.868359C3.43456 1.17036 3.60036 1.57164 3.59996 1.99844C3.59956 2.87924 2.88304 3.5957 2.00176 3.5957C1.73513 3.5955 1.47102 3.52856 1.2384 3.40156L1.10362 3.32812L0.954781 3.36328L0.560992 3.45625L0.657095 3.09922L0.700459 2.93906L0.617638 2.79531C0.478025 2.55371 0.404136 2.27748 0.404336 1.99688C0.404736 1.11647 1.12146 0.4 2.00215 0.4ZM1.29544 1.075C1.26204 1.075 1.20803 1.0875 1.16222 1.1375C1.11642 1.1873 0.987206 1.30792 0.987206 1.55352C0.987206 1.79912 1.16613 2.03652 1.19113 2.06992C1.21593 2.10312 1.5365 2.62305 2.04395 2.82305C2.46559 2.98925 2.55123 2.95645 2.64284 2.94805C2.73444 2.93985 2.93837 2.82754 2.97998 2.71094C3.02158 2.59434 3.02168 2.49404 3.00928 2.47344C2.99688 2.45264 2.96357 2.44023 2.91357 2.41523C2.86376 2.39023 2.61832 2.26973 2.57252 2.25312C2.52671 2.23653 2.49321 2.22813 2.46001 2.27813C2.4268 2.32812 2.33138 2.44024 2.30218 2.47344C2.27297 2.50684 2.24397 2.51133 2.19396 2.48633C2.14396 2.46113 1.98318 2.40828 1.79236 2.23828C1.64395 2.10608 1.5438 1.94297 1.5146 1.89297C1.4856 1.84317 1.51187 1.81582 1.53687 1.79102C1.55927 1.76862 1.58648 1.73272 1.61149 1.70352C1.63629 1.67432 1.64489 1.65351 1.66149 1.62031C1.67809 1.58711 1.66959 1.55781 1.65719 1.53281C1.64479 1.50781 1.54768 1.2613 1.50327 1.1625C1.46587 1.0795 1.42636 1.07757 1.39076 1.07617C1.36176 1.07497 1.32864 1.075 1.29544 1.075Z" fill="white"/>
</svg>
